<svg id="svg" version="1.1" xmlns="http://www.w3.org/2000/svg" xmlns:xlink="http://www.w3.org/1999/xlink" width="400" height="82.56100291023058" viewBox="0, 0, 400,82.56100291023058"><g id="svgg"><path id="path0" d="M301.878 23.672 C 293.680 24.534,287.458 30.820,286.665 39.042 C 285.967 46.268,289.695 52.898,296.283 56.152 C 297.491 56.748,298.287 56.997,301.127 57.666 C 305.452 58.684,311.877 56.640,315.593 53.062 C 317.278 51.440,318.419 50.622,320.333 49.663 C 324.204 47.725,323.251 47.768,364.292 47.669 L 365.167 47.667 365.167 40.667 L 365.167 33.667 364.292 33.665 C 327.823 33.575,325.744 33.528,322.833 32.712 C 320.615 32.090,317.910 30.495,316.000 28.685 C 312.448 25.317,307.194 23.175,303.333 23.523 C 303.196 23.535,302.541 23.602,301.878 23.672 " stroke="none" fill="#1298d1" fill-rule="evenodd"></path><path id="path1" d="M379.500 30.000 L 379.500 33.500 371.375 33.532 C 366.906 33.549,363.681 33.590,364.208 33.623 L 365.167 33.683 365.167 40.667 L 365.167 47.650 364.208 47.710 C 363.681 47.743,366.906 47.784,371.375 47.802 L 379.500 47.833 379.500 51.333 C 379.500 53.258,379.558 54.833,379.630 54.833 C 379.787 54.833,380.520 54.354,380.750 54.101 C 380.842 53.999,381.217 53.693,381.583 53.419 C 381.950 53.146,382.363 52.831,382.500 52.719 C 383.780 51.679,385.038 50.677,385.498 50.333 C 385.804 50.104,386.399 49.635,386.819 49.291 C 387.239 48.948,388.296 48.103,389.167 47.415 C 391.743 45.378,392.302 44.933,394.741 42.987 C 396.019 41.966,397.163 41.094,397.283 41.048 C 397.752 40.868,397.422 40.492,395.402 38.901 C 394.249 37.993,393.132 37.100,392.921 36.917 C 392.710 36.733,392.098 36.239,391.560 35.818 C 391.023 35.397,388.896 33.716,386.833 32.083 C 384.771 30.451,382.645 28.770,382.109 28.349 C 381.573 27.928,380.834 27.340,380.468 27.042 C 379.485 26.243,379.500 26.198,379.500 30.000 M347.137 33.625 C 349.549 33.651,353.449 33.651,355.803 33.625 C 358.157 33.599,356.183 33.577,351.417 33.578 C 346.650 33.578,344.724 33.599,347.137 33.625 M347.137 47.792 C 349.549 47.818,353.449 47.818,355.803 47.792 C 358.157 47.765,356.183 47.744,351.417 47.744 C 346.650 47.744,344.724 47.766,347.137 47.792 " stroke="none" fill="#2c74bc" fill-rule="evenodd"></path><path id="path2" d="M305.892 0.457 C 304.291 6.836,294.127 8.203,290.495 2.528 L 290.247 2.140 289.332 2.491 C 287.912 3.036,284.060 4.888,283.000 5.535 C 282.200 6.023,280.114 7.373,279.947 7.511 C 279.872 7.572,280.004 8.083,280.241 8.645 C 282.862 14.873,276.072 22.251,269.769 20.023 C 268.757 19.665,268.500 19.679,268.500 20.093 C 268.500 20.225,268.441 20.333,268.368 20.333 C 268.296 20.333,267.764 21.327,267.186 22.542 C 266.608 23.756,266.059 24.893,265.967 25.067 C 265.768 25.442,264.417 29.390,264.271 30.024 C 264.176 30.434,264.253 30.506,265.410 31.085 C 272.230 34.501,271.509 44.817,264.292 47.092 C 263.176 47.444,263.206 47.300,263.759 49.721 C 264.597 53.385,266.527 58.619,267.014 58.549 C 267.144 58.531,267.773 58.362,268.413 58.174 C 274.258 56.460,280.003 61.023,279.625 67.080 C 279.529 68.619,278.777 70.673,277.975 71.586 C 277.320 72.333,277.328 72.351,278.875 73.488 C 279.631 74.044,280.400 74.618,280.583 74.763 C 281.235 75.279,284.771 77.313,286.083 77.927 C 286.817 78.269,287.470 78.579,287.536 78.615 C 287.602 78.650,287.885 78.225,288.165 77.669 C 291.165 71.728,299.444 71.219,303.125 76.750 C 303.918 77.942,304.667 80.108,304.667 81.209 L 304.667 82.000 305.458 82.001 C 308.045 82.005,316.430 80.392,316.411 79.894 C 316.408 79.815,316.303 79.188,316.178 78.500 C 315.089 72.527,321.002 67.062,326.812 68.672 C 328.591 69.165,330.531 70.285,331.050 71.119 C 331.474 71.801,334.598 68.621,337.473 64.583 C 339.349 61.947,339.449 62.320,336.445 60.763 C 335.513 60.281,333.325 59.149,331.583 58.249 C 329.842 57.348,327.742 56.244,326.917 55.796 C 325.406 54.975,323.970 54.292,323.923 54.373 C 323.909 54.397,323.641 54.754,323.328 55.167 C 314.170 67.227,296.824 68.249,286.448 57.339 C 285.039 55.857,284.767 55.509,283.528 53.604 C 280.914 49.586,279.750 45.228,279.895 40.000 C 279.989 36.623,280.161 35.663,281.250 32.417 C 281.698 31.084,283.702 27.235,284.157 26.833 C 284.209 26.787,284.473 26.450,284.744 26.083 C 290.721 17.986,302.002 14.537,311.665 17.853 C 313.964 18.641,317.467 20.426,318.167 21.164 C 318.212 21.212,318.550 21.476,318.917 21.749 C 319.965 22.532,321.707 24.236,322.514 25.268 C 322.919 25.786,323.400 26.392,323.583 26.614 L 323.917 27.019 324.667 26.663 C 325.079 26.467,326.092 25.956,326.917 25.526 C 327.742 25.096,329.826 24.010,331.549 23.113 C 333.272 22.217,335.372 21.106,336.215 20.646 C 337.059 20.185,337.998 19.704,338.300 19.576 C 338.963 19.295,338.977 19.331,337.292 16.977 C 335.419 14.359,331.899 10.500,331.384 10.500 C 331.269 10.500,330.651 10.755,330.010 11.067 C 326.267 12.889,322.076 11.822,319.240 8.327 C 318.369 7.253,317.421 4.234,317.529 2.876 L 317.586 2.163 316.001 1.675 C 311.110 0.170,306.115 -0.431,305.892 0.457 M0.000 40.667 L 0.000 81.167 8.667 81.167 L 17.333 81.167 17.333 68.744 L 17.333 56.322 18.792 54.611 C 19.594 53.669,20.962 52.027,21.833 50.962 C 22.704 49.896,23.466 49.018,23.527 49.012 C 23.619 49.002,26.201 52.314,27.417 54.001 C 27.600 54.255,28.425 55.344,29.250 56.419 C 30.075 57.495,30.900 58.583,31.083 58.837 C 31.267 59.090,32.317 60.481,33.417 61.927 C 37.813 67.706,39.104 69.415,39.564 70.068 C 39.828 70.443,40.092 70.787,40.150 70.833 C 40.208 70.879,41.039 71.967,41.996 73.250 C 42.952 74.533,43.776 75.621,43.826 75.667 C 43.998 75.825,47.418 80.362,47.667 80.764 L 47.917 81.166 58.625 81.166 C 64.515 81.167,69.333 81.119,69.333 81.061 C 69.333 80.952,67.754 78.940,65.490 76.167 C 65.228 75.846,64.448 74.871,63.756 74.000 C 63.063 73.129,62.179 72.017,61.790 71.528 C 61.401 71.039,60.918 70.439,60.715 70.195 C 60.389 69.801,57.812 66.579,55.761 64.000 C 55.360 63.496,54.893 62.921,54.724 62.723 C 54.213 62.124,50.774 57.831,50.417 57.345 C 50.001 56.780,47.623 53.780,47.501 53.667 C 47.372 53.547,46.652 52.651,46.167 52.006 C 45.938 51.701,44.887 50.385,43.833 49.080 C 42.779 47.775,41.692 46.420,41.417 46.070 C 41.142 45.719,40.654 45.118,40.333 44.733 C 40.012 44.348,39.150 43.266,38.417 42.328 C 36.993 40.508,36.015 39.304,35.491 38.727 C 35.056 38.248,35.037 38.301,36.125 37.026 C 36.652 36.408,37.421 35.498,37.833 35.003 C 38.246 34.509,39.096 33.499,39.722 32.760 C 40.348 32.021,41.145 31.079,41.492 30.667 C 41.840 30.254,42.865 29.049,43.770 27.989 C 44.676 26.930,45.754 25.659,46.167 25.166 C 46.914 24.274,47.803 23.219,48.642 22.229 C 48.885 21.943,49.383 21.349,49.750 20.910 C 50.117 20.471,52.029 18.222,54.000 15.913 C 55.971 13.604,57.883 11.354,58.250 10.913 C 58.617 10.472,60.267 8.523,61.917 6.582 C 63.567 4.642,65.217 2.693,65.583 2.253 C 65.950 1.813,66.456 1.222,66.708 0.939 C 66.960 0.657,67.167 0.367,67.167 0.296 C 67.167 0.059,45.714 0.138,45.621 0.375 C 45.548 0.560,42.380 4.603,41.481 5.657 C 41.291 5.881,40.935 6.330,40.692 6.654 C 40.449 6.978,40.124 7.395,39.970 7.580 C 39.653 7.961,37.057 11.233,34.083 15.001 C 32.983 16.394,32.007 17.621,31.914 17.726 C 31.821 17.831,31.484 18.254,31.164 18.666 C 30.845 19.078,30.492 19.528,30.380 19.666 C 30.269 19.804,29.795 20.404,29.327 21.000 C 28.466 22.097,27.825 22.898,26.917 24.013 C 26.642 24.350,25.554 25.731,24.500 27.082 C 23.446 28.433,22.321 29.853,22.000 30.239 C 21.679 30.624,21.229 31.190,21.000 31.496 C 20.409 32.285,19.083 33.954,18.362 34.814 C 18.026 35.217,17.659 35.704,17.548 35.898 C 17.388 36.176,17.344 32.445,17.339 18.208 L 17.333 0.167 8.667 0.167 L 0.000 0.167 0.000 40.667 M133.500 40.667 L 133.500 81.167 141.333 81.167 L 149.167 81.167 149.167 77.579 L 149.167 73.990 150.792 75.631 C 151.685 76.533,152.717 77.487,153.083 77.752 C 153.450 78.016,153.787 78.274,153.833 78.325 C 154.068 78.586,155.947 79.720,157.103 80.298 C 163.109 83.303,171.618 83.293,178.000 80.274 C 179.469 79.579,180.124 79.197,182.009 77.937 C 183.325 77.058,186.560 73.696,187.437 72.296 C 187.682 71.904,187.936 71.546,188.001 71.500 C 188.148 71.396,189.226 69.482,189.644 68.583 C 190.441 66.865,190.667 66.291,191.229 64.555 C 193.713 56.885,193.715 46.996,191.234 39.278 C 190.653 37.472,188.271 32.333,188.014 32.333 C 187.944 32.333,187.809 32.162,187.713 31.953 C 186.003 28.199,179.309 23.308,173.973 21.912 C 169.374 20.709,161.494 20.936,159.417 22.331 C 159.325 22.392,158.875 22.579,158.417 22.746 C 156.940 23.283,153.778 25.136,152.727 26.080 C 151.763 26.945,150.302 28.384,149.793 28.968 L 149.167 29.687 149.167 14.927 L 149.167 0.167 141.333 0.167 L 133.500 0.167 133.500 40.667 M342.667 16.833 L 342.667 33.500 351.333 33.500 L 360.000 33.500 360.000 24.500 L 360.000 15.500 380.000 15.500 L 400.000 15.500 400.000 7.833 L 400.000 0.167 371.333 0.167 L 342.667 0.167 342.667 16.833 M221.667 21.416 C 219.100 21.795,217.889 22.045,217.250 22.328 C 217.067 22.410,216.395 22.642,215.758 22.846 C 213.639 23.523,210.341 25.204,208.651 26.468 C 206.677 27.945,206.096 28.453,204.667 29.955 C 202.777 31.939,202.172 32.681,201.172 34.244 C 200.756 34.893,200.320 35.572,200.203 35.754 C 197.132 40.487,195.231 50.600,196.319 56.417 C 196.439 57.058,196.681 58.340,196.857 59.265 C 199.173 71.436,209.116 80.422,222.308 82.264 C 224.689 82.597,232.072 82.498,234.250 82.104 C 238.758 81.290,243.599 79.737,246.070 78.313 C 246.246 78.211,246.696 77.957,247.070 77.748 C 248.686 76.845,251.290 74.899,251.416 74.501 C 251.483 74.292,251.273 73.837,250.788 73.136 C 249.287 70.966,247.056 67.693,245.949 66.038 L 244.804 64.327 244.426 64.622 C 240.618 67.588,237.103 69.119,232.250 69.927 C 222.937 71.476,214.255 66.237,212.622 58.083 L 212.389 56.917 234.111 56.874 L 255.833 56.832 255.832 54.041 C 255.821 32.185,241.478 18.489,221.667 21.416 M69.000 43.792 C 69.000 67.222,69.118 70.077,70.162 71.963 C 70.249 72.121,70.497 72.700,70.713 73.250 C 72.454 77.686,76.333 80.625,82.417 82.117 C 83.786 82.453,89.956 82.602,91.927 82.347 C 97.861 81.579,103.791 78.722,107.720 74.737 L 108.500 73.945 108.500 77.556 L 108.500 81.167 116.250 81.167 L 124.000 81.167 124.000 51.833 L 124.000 22.500 116.250 22.500 L 108.500 22.500 108.500 42.354 L 108.500 62.207 107.208 63.491 C 100.022 70.631,87.955 70.529,85.407 63.306 C 84.499 60.731,84.500 60.766,84.500 40.899 L 84.500 22.500 76.750 22.500 L 69.000 22.500 69.000 43.792 M230.475 33.911 C 235.918 35.198,240.667 40.685,240.667 45.688 L 240.667 46.167 226.409 46.167 L 212.152 46.167 212.257 45.542 C 213.729 36.846,221.609 31.816,230.475 33.911 M165.388 35.239 C 169.703 36.065,173.738 39.422,175.418 43.583 C 175.566 43.950,175.790 44.476,175.916 44.751 C 177.916 49.145,177.029 58.170,174.174 62.469 C 169.001 70.257,157.415 70.827,150.342 63.641 L 149.167 62.447 149.167 51.989 L 149.167 41.531 149.901 40.640 C 150.306 40.151,150.912 39.525,151.250 39.250 C 151.587 38.975,152.100 38.554,152.390 38.316 C 155.485 35.763,161.135 34.425,165.388 35.239 M342.667 64.500 L 342.667 81.167 351.333 81.167 L 360.000 81.167 360.000 64.500 L 360.000 47.833 351.333 47.833 L 342.667 47.833 342.667 64.500 " stroke="none" fill="#040404" fill-rule="evenodd"></path><path id="path3" d="" stroke="none" fill="#042434" fill-rule="evenodd"></path><path id="path4" d="" stroke="none" fill="#181040" fill-rule="evenodd"></path></g></svg>