<svg xmlns="http://www.w3.org/2000/svg" xmlns:xlink="http://www.w3.org/1999/xlink" viewBox="0 0 1071.73 221.27"><defs><linearGradient id="a" x1="-424.28" y1="-348.73" x2="-423.28" y2="-348.73" gradientTransform="matrix(297.1, 0, 0, -297.1, 126823.42, -103498.81)" gradientUnits="userSpaceOnUse"><stop offset="0" stop-color="#00b1e1"/><stop offset="1" stop-color="#2c75ba"/></linearGradient></defs><title>Asset 4</title><polygon points="128.57 217.38 62.99 130.7 46.1 150.82 46.1 217.38 0 217.38 0 0.83 46.1 0.83 46.1 97.58 122.72 0.83 179.54 0.83 93.5 102.45 185.38 217.38 128.57 217.38"/><path d="M290.79,217.38v-19.8c-10.71,12-29.54,23.69-55.19,23.69-34.42,0-50.65-18.82-50.65-49.34V60.57h41.24v95.12c0,21.76,11.36,28.9,28.89,28.9,15.91,0,28.57-8.77,35.71-17.86V60.57H332V217.38Z"/><path d="M358,217.38V.83h41.24V80.7c12.33-15.91,29.86-24,48.37-24,39.93,0,69.48,31.17,69.48,82.47,0,52.27-29.87,82.13-69.48,82.13-18.83,0-36-8.44-48.37-24v20.13Zm76.62-32.79c24,0,39.94-18.18,39.94-45.45s-15.91-45.78-39.94-45.78c-13.31,0-28.57,7.79-35.38,18.18v55.52C406,177.12,421.3,184.59,434.61,184.59Z"/><path d="M525.51,138.81c0-45.45,33.44-82.14,81.17-82.14,46.75,0,78.56,35.07,78.56,86.36v9.09H568.69c2.6,19.81,18.51,36.36,45.13,36.36,13.31,0,31.82-5.84,41.88-15.58l18.18,26.62c-15.58,14.29-40.25,21.75-64.61,21.75C561.55,221.27,525.51,189.13,525.51,138.81Zm81.17-49.35C581,89.46,570,108.62,568,124.2h77.27C644.34,109.27,634,89.46,606.68,89.46Z"/><polygon points="964.59 87.19 964.59 74.01 964.59 41.42 1071.73 41.42 1071.73 0.83 918.49 0.83 918.49 217.38 964.59 217.38 964.59 175.15 964.59 127.78 964.59 87.19"/><path d="M1041.05,90l-23.77-18.87V90h-139a45.54,45.54,0,0,1-31.52-12.64c-.48-.45-1-.91-1.42-1.39a45.78,45.78,0,1,0,0,66.27c.46-.47.94-.93,1.42-1.39a45.59,45.59,0,0,1,31.52-12.64h139v18.87l23.77-18.87,24.07-19.1Z" fill="url(#a)"/><path d="M868.23,146A65.12,65.12,0,1,1,868,72.22L907.56,51.6a110.68,110.68,0,0,0-19.67-23.52c-.61.42-1.23.82-1.88,1.18A23.68,23.68,0,0,1,850.85,6.08a110,110,0,0,0-16.21-4.34A112,112,0,0,0,820.33,0c-.17.6-.36,1.19-.58,1.78a23.69,23.69,0,0,1-30.52,13.81,23.6,23.6,0,0,1-11.62-9.44,110.35,110.35,0,0,0-27.46,14.39,25.32,25.32,0,0,1,1.18,2.77,23.68,23.68,0,0,1-31.21,29.81,109.19,109.19,0,0,0-12,28.55,23.7,23.7,0,0,1,12.95,34.57,23.6,23.6,0,0,1-15.21,11,109.48,109.48,0,0,0,9.38,29.88,23.69,23.69,0,0,1,28.5,36.76,108.8,108.8,0,0,0,27,16.67,23.68,23.68,0,0,1,45.87,9,109.18,109.18,0,0,0,31.26-5.21,23.68,23.68,0,0,1,40.22-23.2,109.46,109.46,0,0,0,20-24c-.48-.35-.93-.76-1.39-1.15Z"/></svg>